<?xml version="1.0" standalone="no"?>
<!DOCTYPE svg PUBLIC "-//W3C//DTD SVG 20010904//EN"
 "http://www.w3.org/TR/2001/REC-SVG-20010904/DTD/svg10.dtd">
<svg version="1.0" xmlns="http://www.w3.org/2000/svg"
 width="399.000000pt" height="347.000000pt" viewBox="0 0 399.000000 347.000000"
 preserveAspectRatio="xMidYMid meet">

<g transform="translate(0.000000,347.000000) scale(0.100000,-0.100000)"
fill="#ffffff" stroke="none">
<path d="M1730 3354 c-345 -53 -656 -204 -894 -433 -225 -218 -359 -434 -446
-717 -50 -162 -64 -259 -64 -459 -1 -175 17 -360 34 -350 4 3 11 -2 14 -11 3
-8 2 -12 -4 -9 -14 9 -13 3 16 -92 89 -291 218 -500 436 -708 210 -200 504
-353 803 -417 133 -29 423 -35 579 -14 355 50 715 236 961 497 361 382 508
922 394 1448 -111 511 -497 966 -987 1161 -56 23 -106 39 -111 35 -5 -3 -11
-1 -13 5 -3 10 -132 44 -209 55 -44 7 -47 6 -81 -34 -59 -69 -73 -152 -39
-228 11 -23 41 -71 68 -106 46 -63 51 -66 137 -97 183 -65 302 -138 434 -264
361 -347 462 -858 261 -1319 -184 -420 -685 -691 -1180 -638 -476 51 -851 340
-988 759 -38 115 -52 212 -52 357 0 139 14 239 47 345 26 82 105 244 156 318
100 145 265 292 418 371 87 45 238 94 344 112 l74 12 4 72 c9 131 62 210 203
303 66 43 73 50 53 56 -41 11 -271 4 -368 -10z m720 -133 c0 -6 -4 -13 -10
-16 -5 -3 -10 1 -10 9 0 9 5 16 10 16 6 0 10 -4 10 -9z m70 -25 c0 -8 -4 -17
-9 -21 -12 -7 -24 12 -16 25 9 15 25 12 25 -4z m-895 -66 c3 -5 1 -10 -4 -10
-6 0 -11 5 -11 10 0 6 2 10 4 10 3 0 8 -4 11 -10z m1075 -10 c0 -5 -5 -10 -11
-10 -5 0 -7 5 -4 10 3 6 8 10 11 10 2 0 4 -4 4 -10z m-1598 -72 c-7 -7 -12 -8
-12 -2 0 14 12 26 19 19 2 -3 -1 -11 -7 -17z m2078 -278 c0 -5 -4 -10 -10 -10
-5 0 -10 5 -10 10 0 6 5 10 10 10 6 0 10 -4 10 -10z m-70 -4 c0 -3 -4 -8 -10
-11 -5 -3 -10 -1 -10 4 0 6 5 11 10 11 6 0 10 -2 10 -4z m-2030 -96 c0 -5 -5
-10 -11 -10 -5 0 -7 5 -4 10 3 6 8 10 11 10 2 0 4 -4 4 -10z m-96 -15 c-7 -16
-24 -21 -24 -6 0 8 7 13 27 20 1 1 0 -6 -3 -14z m-184 -75 c0 -5 -5 -10 -11
-10 -5 0 -7 5 -4 10 3 6 8 10 11 10 2 0 4 -4 4 -10z m-150 -190 c0 -5 -2 -10
-4 -10 -3 0 -8 5 -11 10 -3 6 -1 10 4 10 6 0 11 -4 11 -10z m55 -19 c3 -5 1
-12 -4 -15 -5 -3 -11 1 -15 9 -6 16 9 21 19 6z m-15 -57 c0 -8 -5 -12 -10 -9
-6 4 -8 11 -5 16 9 14 15 11 15 -7z m-210 -54 c0 -5 -2 -10 -4 -10 -3 0 -8 5
-11 10 -3 6 -1 10 4 10 6 0 11 -4 11 -10z m55 -40 c3 -5 1 -10 -4 -10 -6 0
-11 5 -11 10 0 6 2 10 4 10 3 0 8 -4 11 -10z m2799 -399 c12 -23 17 -48 14
-76 -5 -45 -53 -125 -74 -125 -18 0 -59 57 -74 104 -26 81 9 187 74 227 l31
19 6 -58 c3 -31 14 -72 23 -91z m82 123 c42 -28 76 -97 76 -157 1 -94 -62
-177 -134 -177 -35 0 -35 10 -3 40 37 35 48 86 30 146 -8 27 -21 58 -29 69
-27 36 -18 95 15 95 11 0 31 -7 45 -16z m-2813 -1 c4 -3 -7 -18 -24 -33 -27
-22 -33 -35 -37 -81 -3 -45 0 -63 22 -103 29 -54 33 -93 13 -120 -12 -17 -16
-17 -43 -3 -61 32 -104 103 -104 175 0 49 44 138 78 157 28 15 84 20 95 8z
m100 -73 c44 -88 34 -169 -31 -237 -40 -44 -54 -42 -47 5 4 24 -1 57 -14 96
-24 67 -26 98 -10 129 17 33 51 68 63 64 6 -1 23 -27 39 -57z m-277 -471 c10
-17 -13 -36 -27 -22 -12 12 -4 33 11 33 5 0 12 -5 16 -11z m454 -314 c0 -8 -4
-15 -9 -15 -13 0 -22 16 -14 24 11 11 23 6 23 -9z m2230 -5 c0 -5 -4 -10 -10
-10 -5 0 -10 5 -10 10 0 6 5 10 10 10 6 0 10 -4 10 -10z m20 -30 c0 -5 -4 -10
-10 -10 -5 0 -10 5 -10 10 0 6 5 10 10 10 6 0 10 -4 10 -10z m51 -93 c-13 -13
-26 -3 -16 12 3 6 11 8 17 5 6 -4 6 -10 -1 -17z m-247 -128 c-2 -5 -31 -27
-64 -50 -50 -35 -57 -44 -48 -59 10 -16 16 -14 71 21 46 30 63 36 74 28 23
-20 14 -38 -37 -76 -47 -35 -60 -61 -34 -70 7 -2 41 18 77 46 l65 49 21 -22
21 -22 -22 -21 c-32 -28 -188 -136 -192 -132 -1 2 -37 54 -78 115 l-76 111 91
65 92 66 22 -20 c12 -12 20 -25 17 -29z m-1841 20 c37 -19 87 -72 87 -92 0
-10 -5 -27 -10 -37 -9 -16 -14 -18 -35 -8 -13 6 -22 15 -19 19 10 16 -44 59
-74 59 -76 0 -113 -94 -55 -140 16 -13 37 -20 50 -17 17 3 24 -2 32 -24 12
-34 7 -39 -37 -39 -111 0 -183 112 -134 210 34 68 131 102 195 69z m1525 -194
c13 -29 13 -29 -72 -66 -63 -27 -71 -35 -57 -58 8 -12 17 -11 59 7 60 26 78
27 86 6 11 -29 6 -34 -54 -61 -58 -25 -76 -48 -46 -59 8 -3 46 8 86 25 l71 30
11 -25 c7 -15 8 -28 2 -34 -10 -9 -208 -90 -222 -90 -4 0 -15 21 -24 48 -8 26
-29 85 -46 130 l-31 84 31 11 c17 7 63 26 102 43 88 39 90 40 104 9z m-1197
-11 c15 -7 38 -27 53 -44 38 -45 37 -125 -1 -171 -51 -60 -117 -73 -189 -38
-61 29 -88 76 -82 141 4 40 12 57 40 85 52 52 112 61 179 27z m357 -98 c51 -7
94 -15 96 -17 2 -2 2 -17 -1 -32 l-6 -28 -78 7 c-68 6 -79 4 -85 -10 -9 -23
-3 -27 58 -35 50 -6 53 -7 56 -37 l3 -32 -65 5 -65 6 -6 -29 c-3 -16 -8 -40
-11 -53 -4 -21 -9 -22 -42 -16 -20 4 -38 8 -39 9 -1 1 9 64 24 139 29 157 12
144 161 123z m485 -13 c6 -33 -2 -39 -62 -48 -83 -12 -91 -16 -91 -41 0 -22 2
-23 48 -17 78 10 77 11 77 -22 0 -29 -2 -30 -59 -39 l-58 -9 6 -53 6 -54 -40
0 c-22 0 -40 5 -40 10 0 14 -19 195 -24 237 l-5 32 57 6 c31 4 73 11 92 15 69
16 87 12 93 -17z"/>
<path d="M1306 579 c-51 -40 -25 -139 38 -139 38 0 56 10 71 41 21 40 19 57
-14 90 -35 34 -59 36 -95 8z"/>
<path d="M1969 3170 c-66 -69 -83 -176 -59 -369 9 -70 8 -106 -10 -228 -21
-149 -24 -215 -11 -247 6 -15 10 -10 25 27 9 25 40 83 68 129 67 109 80 149
80 233 0 56 -8 91 -38 175 -44 122 -52 229 -21 288 23 43 12 40 -34 -8z"/>
<path d="M2135 2955 c14 -43 25 -120 25 -175 0 -92 -32 -175 -114 -298 -77
-115 -102 -180 -94 -251 5 -53 25 -49 32 6 12 77 41 125 131 211 124 120 152
190 121 310 -16 63 -62 162 -91 197 l-17 20 7 -20z"/>
<path d="M1858 2827 c-9 -19 -42 -70 -73 -113 -69 -97 -89 -160 -83 -263 5
-83 20 -121 76 -190 30 -37 109 -87 120 -76 2 2 -11 34 -30 72 -30 62 -33 75
-33 163 0 66 7 119 22 175 28 103 35 169 26 224 l-8 43 -17 -35z"/>
<path d="M1427 2733 c-4 -3 5 -27 20 -52 35 -60 88 -131 79 -106 -4 11 -9 27
-11 35 -2 8 -15 41 -30 73 -24 53 -41 67 -58 50z"/>
<path d="M2450 2695 c-11 -25 -29 -65 -40 -90 -11 -25 -18 -45 -16 -45 11 0
107 161 101 169 -12 21 -25 11 -45 -34z"/>
<path d="M1303 2653 c-4 -10 2 -23 18 -36 13 -11 23 -23 22 -27 -1 -4 20 -32
48 -61 59 -63 59 -62 -10 54 -53 88 -66 100 -78 70z"/>
<path d="M2552 2595 c-23 -35 -37 -67 -33 -70 11 -6 46 33 46 53 0 10 5 16 12
15 15 -3 55 46 47 58 -13 21 -34 5 -72 -56z"/>
<path d="M1191 2556 c-9 -11 4 -28 65 -85 42 -39 81 -71 86 -71 11 0 -25 51
-81 115 -44 51 -56 58 -70 41z"/>
<path d="M2652 2495 c-80 -85 -101 -122 -44 -76 23 18 62 51 88 74 40 36 44
44 32 55 -13 10 -25 2 -76 -53z"/>
<path d="M2490 2500 c-6 -12 -9 -24 -7 -27 3 -2 11 5 17 17 6 12 9 24 7 27 -3
2 -11 -5 -17 -17z"/>
<path d="M1086 2435 c-4 -11 10 -26 47 -49 66 -42 138 -79 143 -73 7 6 -157
137 -171 137 -7 0 -15 -7 -19 -15z"/>
<path d="M2723 2377 c-46 -39 -81 -72 -79 -75 12 -12 186 102 186 122 0 32
-30 19 -107 -47z"/>
<path d="M1011 2316 c-10 -12 -2 -19 46 -42 32 -15 64 -27 71 -27 6 0 12 -3
12 -7 0 -8 70 -33 76 -27 9 9 -116 78 -127 71 -8 -4 -9 -3 -5 4 4 6 -6 18 -23
27 -37 18 -36 18 -50 1z"/>
<path d="M2801 2269 c-51 -33 -91 -62 -89 -64 11 -11 208 78 208 94 0 5 -6 13
-13 19 -9 8 -37 -5 -106 -49z"/>
<path d="M2038 2254 c-5 -4 -8 -19 -8 -34 0 -27 0 -27 95 -34 144 -10 264 -34
325 -64 71 -35 75 -56 18 -82 -54 -24 -76 -26 -58 -5 32 38 -24 68 -173 92
-129 20 -552 13 -666 -11 -41 -9 -77 -14 -79 -11 -11 11 97 48 182 63 50 9 92
16 94 18 2 1 -10 16 -27 34 -28 32 -31 32 -88 26 -84 -10 -218 -43 -272 -67
-88 -38 -114 -86 -70 -130 142 -142 1057 -158 1253 -21 58 40 64 66 24 106
-40 40 -123 72 -248 96 -109 21 -291 35 -302 24z m202 -169 c82 -19 110 -30
110 -46 0 -37 -266 -69 -433 -52 -193 20 -133 50 121 60 89 3 165 9 167 13 8
13 -258 20 -367 11 -144 -13 -171 -28 -128 -71 19 -19 19 -19 -13 -13 -60 11
-99 31 -95 50 4 23 89 52 188 63 113 13 362 5 450 -15z"/>
<path d="M1915 2014 c14 -10 48 -14 124 -13 93 1 99 2 51 9 -30 4 -86 10 -125
13 -61 4 -67 3 -50 -9z"/>
<path d="M962 2192 c-31 -10 -5 -30 64 -50 79 -23 173 -40 163 -28 -11 12
-215 82 -227 78z"/>
<path d="M2920 2173 c-8 -3 -39 -14 -67 -25 -54 -20 -69 -38 -33 -38 10 0 25
6 32 13 7 8 21 12 32 9 13 -4 17 -1 12 7 -6 8 -1 10 17 6 28 -7 71 11 62 26
-7 10 -31 11 -55 2z"/>
<path d="M900 2031 c0 -17 6 -21 33 -22 49 -2 117 -7 162 -14 72 -11 23 11
-65 29 -47 10 -95 20 -107 23 -18 4 -23 1 -23 -16z"/>
<path d="M1264 2015 c-9 -36 14 -233 37 -315 39 -145 140 -311 231 -381 114
-89 209 -119 393 -126 278 -11 606 53 659 128 23 33 20 52 -11 91 l-28 33 45
-27 c128 -74 70 -154 -170 -235 -69 -23 -122 -42 -119 -42 19 -2 245 43 304
61 146 43 215 90 215 148 0 64 -87 121 -237 157 -41 9 -73 22 -73 29 0 6 21
17 48 24 156 39 267 175 248 305 -9 58 -63 121 -119 136 -23 7 -48 18 -56 25
-11 9 -20 7 -49 -12 -44 -30 -168 -70 -280 -89 -102 -18 -385 -37 -457 -30
-27 2 -90 7 -139 10 l-88 5 4 -122 c4 -101 10 -138 34 -208 38 -113 110 -220
187 -276 32 -24 55 -44 50 -44 -27 0 -162 54 -207 82 -189 120 -305 311 -346
572 -9 56 -17 74 -40 96 l-30 28 -6 -23z m1405 -141 c28 -35 26 -78 -3 -128
-23 -40 -70 -76 -82 -64 -3 3 1 28 9 56 9 27 18 75 22 106 8 63 22 71 54 30z"/>
<path d="M2930 2023 c-87 -23 -87 -36 0 -28 77 7 97 15 86 34 -9 13 -15 13
-86 -6z"/>
<path d="M1467 1904 c-3 -5 -8 -29 -12 -54 -15 -106 52 -284 145 -381 36 -37
44 -43 27 -19 -62 87 -106 210 -128 355 -12 83 -22 114 -32 99z"/>
<path d="M872 1878 c5 -16 160 -23 228 -12 l45 8 -60 7 c-107 12 -217 11 -213
-3z"/>
<path d="M2883 1873 c-94 -7 -57 -23 52 -23 87 0 105 3 105 15 0 15 -27 17
-157 8z"/>
<path d="M999 1735 c-3 -2 -32 -6 -64 -8 -35 -1 -60 -8 -63 -15 -5 -15 14 -15
97 -1 77 12 113 28 65 29 -17 0 -33 -2 -35 -5z"/>
<path d="M2873 1718 c17 -6 32 -7 38 -1 5 5 -6 10 -29 10 -37 2 -37 2 -9 -9z"/>
<path d="M2925 1710 c-4 -6 6 -10 23 -10 16 0 44 -3 61 -6 24 -5 31 -3 31 10
0 13 -11 16 -54 16 -30 0 -58 -4 -61 -10z"/>
<path d="M2860 1581 c16 -10 130 -41 151 -41 24 0 2 10 -52 24 -92 23 -115 27
-99 17z"/>
<path d="M960 1569 c-51 -14 -63 -19 -59 -23 5 -5 109 21 117 29 8 7 -18 5
-58 -6z"/>
<path d="M1247 1485 c-75 -26 -109 -45 -144 -83 -31 -33 -29 -64 7 -105 72
-82 311 -147 630 -171 92 -7 46 9 -68 24 -128 16 -265 54 -335 93 -107 59
-114 117 -21 172 l51 31 -15 32 c-9 18 -20 32 -26 31 -6 0 -42 -11 -79 -24z"/>
<path d="M2875 1350 c0 -48 -26 -78 -98 -112 -172 -84 -456 -128 -821 -128
-532 0 -926 107 -926 250 0 27 -18 22 -43 -12 -17 -22 -18 -31 -8 -61 36 -107
187 -274 339 -374 156 -103 330 -163 534 -184 182 -19 399 15 581 91 173 72
357 223 457 375 66 102 67 149 1 184 -14 8 -16 4 -16 -29z m-1218 -295 c258
-27 617 -14 850 30 42 8 78 13 80 11 7 -7 -109 -47 -207 -72 -148 -37 -272
-47 -490 -41 -141 4 -221 11 -290 26 -101 22 -267 74 -282 89 -5 5 38 0 94
-10 56 -10 167 -25 245 -33z"/>
</g>
</svg>
